<svg version="1.2" baseProfile="tiny" xmlns="http://www.w3.org/2000/svg" viewBox="0 0 24 24"><path d="m 18.07627,9.9745767 -4.050847,0 0,-4.050848 c 0,-1.1180338 -0.907389,-2.0254236 -2.025423,-2.0254236 -1.118034,0 -2.0254235,0.9073898 -2.0254235,2.0254236 l 0.071905,4.050848 -4.1227503,0 c -1.1180338,0 -2.0254236,0.9073893 -2.0254236,2.0254233 0,1.118033 0.9073898,2.025423 2.0254236,2.025423 l 4.1227503,-0.0719 -0.071905,4.122749 c 0,1.118034 0.9073895,2.025425 2.0254235,2.025425 1.118034,0 2.025423,-0.907391 2.025423,-2.025425 l 0,-4.122749 4.050847,0.0719 c 1.118034,0 2.025425,-0.90739 2.025425,-2.025423 0,-1.118034 -0.907391,-2.0254233 -2.025425,-2.0254233 z" /></svg>